<?xml version="1.0" standalone="no"?>
<!DOCTYPE svg PUBLIC "-//W3C//DTD SVG 20010904//EN"
 "http://www.w3.org/TR/2001/REC-SVG-20010904/DTD/svg10.dtd">
<svg version="1.0" xmlns="http://www.w3.org/2000/svg"
 width="700.000000pt" height="700.000000pt" viewBox="0 0 700.000000 700.000000"
 preserveAspectRatio="xMidYMid meet">
<metadata>
Created by potrace 1.14, written by Peter Selinger 2001-2017
</metadata>
<g transform="translate(0.000000,700.000000) scale(0.100000,-0.100000)"
fill="#000000" stroke="none">
<path d="M2865 6790 c-174 -36 -303 -151 -355 -318 l-18 -57 -38 2 c-250 13
-331 12 -384 -5 -30 -9 -77 -30 -104 -46 -48 -28 -136 -109 -136 -125 0 -5
-25 -12 -56 -16 -31 -4 -66 -8 -78 -10 -11 -2 -41 -6 -66 -9 -25 -3 -62 -8
-82 -11 -21 -3 -55 -7 -75 -10 -21 -3 -58 -8 -83 -11 -311 -36 -397 -63 -492
-158 -118 -117 -155 -256 -124 -464 10 -64 16 -108 21 -146 5 -45 12 -94 25
-191 6 -38 12 -90 15 -115 5 -43 31 -240 40 -305 2 -16 7 -52 10 -80 4 -27 8
-61 10 -75 4 -26 40 -302 50 -380 6 -53 15 -115 20 -150 2 -14 7 -48 10 -76 3
-28 7 -60 10 -72 2 -11 6 -45 10 -74 3 -29 7 -64 9 -78 2 -14 7 -52 11 -85 4
-33 9 -67 10 -76 2 -9 6 -38 9 -65 11 -82 14 -106 25 -194 17 -121 22 -161 26
-195 2 -16 9 -64 15 -105 5 -41 12 -95 15 -120 3 -25 7 -56 10 -70 2 -14 6
-50 10 -80 4 -30 8 -66 10 -80 2 -14 9 -63 15 -110 6 -47 13 -101 16 -121 2
-20 7 -53 9 -73 3 -20 7 -51 9 -69 3 -17 7 -54 11 -82 3 -27 8 -61 10 -75 3
-14 7 -47 11 -75 3 -27 7 -61 9 -75 2 -14 11 -81 20 -150 19 -152 25 -197 30
-230 2 -14 7 -48 10 -76 3 -28 7 -59 9 -70 2 -10 7 -48 11 -84 4 -36 9 -72 10
-81 2 -9 6 -40 10 -70 4 -30 8 -63 10 -74 1 -11 6 -47 10 -80 3 -33 9 -71 11
-85 2 -14 6 -45 10 -70 27 -214 130 -352 313 -416 57 -20 80 -23 171 -19 58 2
116 6 130 9 14 2 48 8 75 11 28 4 61 8 75 10 14 2 48 6 75 9 42 5 158 20 315
42 20 2 47 6 60 9 13 3 54 7 90 11 36 3 67 7 70 9 3 2 34 6 70 10 36 4 73 9
83 11 119 22 184 22 452 0 22 -2 78 -7 125 -11 47 -3 105 -8 130 -10 25 -2 92
-7 149 -10 57 -4 112 -8 122 -10 10 -2 63 -7 116 -10 54 -3 109 -8 123 -10 14
-2 70 -7 125 -11 232 -18 318 -4 427 69 119 80 189 205 202 363 9 99 15 134
47 271 15 67 30 132 33 145 3 13 21 93 41 178 20 85 40 173 45 195 6 30 145
631 165 715 2 8 11 44 19 80 8 36 28 126 45 200 17 74 45 194 61 265 16 72 43
189 60 260 31 129 36 152 44 190 3 11 14 58 25 105 11 47 22 97 25 110 2 14
23 104 46 200 23 96 43 186 46 199 3 12 12 53 20 90 9 36 17 73 19 81 2 8 13
56 25 105 11 50 23 99 25 110 3 11 57 245 120 520 64 275 123 532 131 570 36
164 4 306 -97 423 -41 48 -114 99 -172 120 -41 16 -260 71 -384 97 -10 2 -245
56 -523 120 -278 64 -512 118 -520 120 -8 2 -114 26 -235 54 -121 28 -229 53
-240 55 -11 3 -60 14 -110 26 -49 12 -160 37 -245 56 -85 19 -201 46 -258 60
-116 27 -208 36 -267 24z"/>
<path d="M5690 1819 c-81 -8 -147 -24 -186 -44 -16 -8 -34 -15 -40 -15 -6 0
-46 -26 -90 -58 -156 -114 -246 -277 -261 -468 -21 -283 152 -542 425 -641 92
-33 249 -42 347 -19 117 28 209 80 300 171 129 128 187 264 187 436 1 182 -55
324 -179 453 -130 134 -316 203 -503 185z"/>
</g>
</svg>
