<svg viewBox="0 0 1024 1024" xmlns="http://www.w3.org/2000/svg" fill-rule="evenodd" clip-rule="evenodd" stroke-linecap="round" stroke-linejoin="round" stroke-miterlimit="1.5"><path fill="none" d="M0 0h1024v1024H0z"/><path d="M866.186 196.576c8.244-35.749-14.087-71.466-49.836-79.71L445.576 31.364C409.827 23.12 374.11 45.451 365.867 81.2L210.366 755.519c-8.244 35.749 14.087 71.466 49.836 79.709l370.774 85.502c35.749 8.244 71.466-14.087 79.71-49.836l155.5-674.318z" fill="#3da546"/><path d="M767.322 184.714c2.893-36.573-24.452-68.614-61.025-71.506L326.976 83.211c-36.573-2.892-68.614 24.453-71.506 61.026l-54.554 689.862c-2.892 36.573 24.453 68.614 61.026 71.506l379.32 29.997c36.573 2.892 68.614-24.453 71.506-61.026l54.554-689.862z" fill="#e9590b"/><path d="M620.851 132.843c-4.79-36.373-38.209-62.015-74.582-57.225l-377.248 49.676c-36.374 4.79-62.016 38.209-57.226 74.582l90.345 686.093c4.789 36.374 38.209 62.015 74.582 57.226l377.248-49.676c36.373-4.79 62.015-38.209 57.226-74.582l-90.345-686.094z" fill="#00587d"/><circle cx="840.156" cy="849.818" r="72.624" fill="#fff" stroke="#000" stroke-width="40"/><path d="M263.254 295.05c19.828-100.906 252.295-137.575 248.705 17.691-2.39 103.372-109.206 188.059-93.623 313.98" fill="none" stroke="#fff" stroke-width="44.86"/></svg>